<svg version="1.1" id="Layer_1" xmlns="http://www.w3.org/2000/svg" xmlns:xlink="http://www.w3.org/1999/xlink" x="0px" y="0px"
	 width="100%" viewBox="0 0 496 496" enable-background="new 0 0 496 496" xml:space="preserve">
<path fill="#000000" opacity="1.000000" stroke="none" 
	d="
M497.000000,180.000000 
	C497.000000,285.999969 497.000000,391.499969 497.000000,496.999939 
	C331.666718,496.999969 166.333466,496.999969 1.000145,497.000000 
	C1.000097,331.666779 1.000097,166.333542 1.000048,1.000234 
	C166.333191,1.000156 331.666382,1.000156 496.999786,1.000078 
	C497.000000,60.500000 497.000000,120.000000 497.000000,180.000000 
M406.109894,73.405663 
	C353.138153,27.877253 292.001465,8.282360 222.474564,16.260965 
	C171.282150,22.135580 126.564926,42.997658 89.699203,78.749329 
	C35.084213,131.713898 11.116658,196.644516 18.232428,272.682373 
	C21.813246,310.946381 34.943127,345.778900 56.021366,377.773895 
	C109.381256,458.769684 209.326157,498.544800 303.864166,476.064972 
	C361.695953,462.313324 408.160034,431.142578 442.313629,382.547241 
	C479.548004,329.568481 492.198059,270.576630 481.179626,206.914185 
	C472.020905,153.996719 446.406311,109.863045 406.109894,73.405663 
z"/>
<path fill="#000000" opacity="1.000000" stroke="none" 
	d="
M415.521667,371.477417 
	C379.104523,418.815430 331.457367,446.464813 272.592102,452.911743 
	C213.733322,459.357941 161.254211,442.632599 115.772484,404.510773 
	C110.180092,399.823395 110.175461,399.431183 115.796364,394.948792 
	C128.628296,384.715973 142.553513,377.031677 159.354126,375.467072 
	C174.683212,374.039551 188.080276,378.474640 199.600235,388.290588 
	C203.564774,391.668762 206.432327,391.562225 210.498062,388.850159 
	C232.022018,374.492554 250.526474,356.820099 267.566711,337.506927 
	C280.479065,322.872162 292.453217,307.523865 303.421936,291.356506 
	C310.325623,281.180786 318.981140,272.654327 330.246033,267.198639 
	C339.649811,262.644287 349.368195,261.718262 359.376434,264.982605 
	C395.329437,276.709320 433.331818,248.668045 432.540894,210.642776 
	C432.103394,189.611145 417.568390,161.134064 390.670471,156.005692 
	C381.137848,154.188187 371.435486,154.549011 361.845032,156.188889 
	C355.741913,157.232483 354.159790,156.028473 353.657684,149.740234 
	C353.151154,143.396851 354.920776,137.931061 359.528595,133.409653 
	C362.528656,130.465851 364.914520,127.043015 366.506409,123.134209 
	C369.671448,115.362465 367.237152,107.630287 360.221130,102.999924 
	C357.402161,101.139519 354.300415,100.016663 350.994171,99.334610 
	C345.670593,98.236412 340.308746,97.736702 335.018555,95.948486 
	C325.615723,92.770088 314.213531,99.462288 311.253479,108.959686 
	C310.794922,110.431000 310.220886,111.758102 309.148560,112.860847 
	C308.916565,113.099442 308.701416,113.355560 308.490570,113.613464 
	C303.143433,120.154243 299.503143,127.466202 303.616486,135.663681 
	C307.673187,143.748154 315.632416,146.705765 324.171478,146.532928 
	C332.754089,146.359238 338.454712,149.791504 342.297760,157.173431 
	C344.169342,160.768524 343.532379,162.755875 339.541260,164.360977 
	C321.928223,171.444336 304.430328,178.813736 286.879517,186.052322 
	C281.915009,188.099884 280.763000,187.539032 279.729645,182.299698 
	C278.458130,175.853134 279.894867,170.043015 284.454773,165.185684 
	C286.626068,162.872772 288.811859,160.591034 290.409515,157.820724 
	C296.767914,146.795334 292.971039,135.873657 281.000641,131.664520 
	C273.663391,129.084534 265.801575,128.566299 258.230804,126.772682 
	C249.218018,124.637444 239.830612,131.385223 236.941238,140.192642 
	C236.235794,142.343002 234.822098,143.902054 233.554886,145.649490 
	C229.801575,150.825165 226.299026,156.176453 227.987656,163.065201 
	C229.977859,171.184204 237.495773,176.787857 247.399841,177.602432 
	C249.718964,177.793182 252.063263,177.674652 254.395859,177.705505 
	C260.725464,177.789246 268.584808,185.002487 269.253082,191.189941 
	C269.477844,193.270782 268.040222,193.783615 266.708008,194.336990 
	C247.943787,202.131226 229.152039,209.859283 210.396881,217.675201 
	C207.546722,218.862976 205.985092,218.076797 205.189682,215.197876 
	C203.235825,208.125916 203.814728,201.706833 209.618011,196.434708 
	C211.210495,194.987976 212.627960,193.307800 213.926147,191.584396 
	C223.935547,178.296310 217.830963,163.610809 201.283585,161.451797 
	C196.162506,160.783600 191.223618,160.037231 186.294052,158.165878 
	C177.866547,154.966660 165.299088,161.456757 162.640594,170.000168 
	C161.871429,172.471954 160.822800,174.566711 159.209045,176.518188 
	C154.163406,182.619843 151.003082,189.477325 154.449707,197.232162 
	C158.020706,205.266876 165.522247,207.784531 173.670502,208.619598 
	C175.651596,208.822632 177.667709,208.668945 179.666977,208.712555 
	C186.154251,208.854034 193.314682,215.294983 194.328278,221.665558 
	C194.685379,223.910049 193.407135,224.662949 191.811539,225.320862 
	C173.028687,233.065384 154.232666,240.778015 135.459885,248.546799 
	C132.709625,249.684937 131.430374,248.544403 130.688858,246.025208 
	C128.747192,239.428741 129.767868,233.430161 134.620560,228.452072 
	C137.081268,225.927765 139.419189,223.370026 141.196640,220.325974 
	C147.929352,208.795486 143.638458,197.260025 130.715408,193.704956 
	C123.587914,191.744202 116.188683,190.895737 108.979065,188.898392 
	C101.331749,186.779800 90.659309,193.635925 88.209328,201.185333 
	C87.194832,204.311371 85.515381,206.798492 83.610855,209.320099 
	C73.900887,222.176086 78.814514,235.709885 94.534607,239.216431 
	C97.910141,239.969376 101.333183,240.657089 104.911797,240.308151 
	C110.971931,239.717239 119.104568,246.712479 119.832481,252.768372 
	C120.150436,255.413620 118.034409,255.719345 116.481071,256.387207 
	C108.679504,259.741333 100.658562,262.632141 93.037056,266.347076 
	C81.860878,271.794678 75.887802,280.844452 76.431183,293.574615 
	C76.632042,298.280365 78.464806,302.626221 80.012962,307.029236 
	C82.573570,314.311615 84.498550,321.690613 82.259758,329.485809 
	C80.706841,334.892883 77.506279,338.838440 72.556129,341.594055 
	C68.789383,343.690948 66.705841,342.994568 64.789383,339.019379 
	C56.198040,321.199219 50.054775,302.606232 46.746868,283.117645 
	C30.784389,189.074402 79.392899,97.970985 166.458862,58.973316 
	C190.413147,48.243961 215.577377,42.146202 241.892975,41.658241 
	C321.379089,40.184368 382.925476,72.996765 426.003815,139.612701 
	C443.246643,166.276840 452.687653,195.960571 455.545166,227.767334 
	C460.296265,280.652069 446.994080,328.379333 415.521667,371.477417 
z"/>
<path fill="#000000" opacity="1.000000" stroke="none" 
	d="
M204.978745,259.656372 
	C212.910522,265.249054 215.124130,273.538330 210.877167,280.640106 
	C206.739258,287.559570 197.998550,290.064636 190.859726,286.377045 
	C184.046661,282.857727 180.948776,274.826599 183.630966,267.636780 
	C186.377899,260.273438 194.070953,256.400726 201.817749,258.503815 
	C202.774200,258.763489 203.696899,259.147522 204.978745,259.656372 
z"/>
<path fill="#000000" opacity="1.000000" stroke="none" 
	d="
M272.013916,258.627625 
	C263.670685,257.535370 259.070465,253.652344 257.501434,246.704071 
	C256.162323,240.774017 258.686890,234.454163 263.766449,231.020676 
	C268.760132,227.645218 275.682861,227.615753 280.692749,230.948669 
	C285.688110,234.271912 288.366333,240.826248 287.099426,246.627502 
	C285.622650,253.389938 280.478760,257.591858 272.013916,258.627625 
z"/>
<path fill="#000000" opacity="1.000000" stroke="none" 
	d="
M112.939911,315.086304 
	C107.932373,308.880615 107.066826,301.947357 110.358360,296.344879 
	C113.503983,290.990753 119.371780,288.388794 125.676453,289.301788 
	C132.210205,290.247955 136.193741,294.090118 138.012695,300.155334 
	C139.752029,305.955109 137.311829,312.898163 132.508240,316.179016 
	C127.134735,319.849091 121.459808,320.580902 115.642845,317.085083 
	C114.791397,316.573425 114.021378,315.926239 112.939911,315.086304 
z"/>
<path fill="#000000" opacity="1.000000" stroke="none" 
	d="
M360.303711,204.056641 
	C362.681793,210.884552 362.269135,216.974274 356.975311,221.782532 
	C352.275635,226.051163 346.612549,226.889389 340.729462,224.480438 
	C334.731506,222.024460 331.165314,215.784454 331.685699,209.269135 
	C332.186432,203.000092 337.118347,197.364700 343.365234,195.923706 
	C349.955200,194.403549 355.904327,197.157440 360.303711,204.056641 
z"/>
</svg>